<?xml version="1.0" encoding="utf-8"?>
<!-- Generator: Adobe Illustrator 22.1.0, SVG Export Plug-In . SVG Version: 6.00 Build 0)  -->
<svg version="1.1" id="Layer_1" focusable="false" xmlns="http://www.w3.org/2000/svg" xmlns:xlink="http://www.w3.org/1999/xlink"
	 x="0px" y="0px" viewBox="0 0 448 512" style="enable-background:new 0 0 448 512;" xml:space="preserve">
<style type="text/css">
	.st0{fill:#1C1717;}
</style>
<path class="st0" d="M225.5,270.4c-32.6,0-59,26.3-59,59s26.3,59,59,59s59-26.3,59-59S258.2,270.4,225.5,270.4z M300.7,268
	c0,7.6-6.2,13.8-13.8,13.8c-7.6,0-13.8-6.2-13.8-13.8s6.2-13.8,13.8-13.8C294.5,254.2,300.7,260.4,300.7,268z M339.7,281.9
	c-0.9-18.4-5.1-34.7-18.6-48.2c-13.4-13.4-29.8-17.7-48.2-18.6c-19-1.1-75.9-1.1-94.9,0c-18.4,0.9-34.7,5.1-48.2,18.5
	s-17.7,29.8-18.6,48.2c-1.1,19-1.1,75.9,0,94.9c0.9,18.4,5.1,34.7,18.6,48.2c13.5,13.4,29.8,17.7,48.2,18.6c19,1.1,75.9,1.1,94.9,0
	c18.4-0.9,34.7-5.1,48.2-18.6c13.4-13.4,17.7-29.8,18.6-48.2C340.8,357.8,340.8,300.9,339.7,281.9L339.7,281.9z M315.2,397.1
	c-4,10.1-11.8,17.8-21.9,21.9c-15.1,6-51.1,4.6-67.8,4.6s-52.7,1.3-67.8-4.6c-10.1-4-17.8-11.8-21.9-21.9c-6-15.1-4.6-51.1-4.6-67.8
	c0-16.7-1.3-52.7,4.6-67.8c4-10.1,11.8-17.8,21.9-21.9c15.1-6,51.1-4.6,67.8-4.6s52.7-1.3,67.8,4.6c10.1,4,17.8,11.8,21.9,21.9
	c6,15.1,4.6,51.1,4.6,67.8C319.8,346.1,321.2,382,315.2,397.1z"/>
<ellipse class="st0" cx="367" cy="175.3" rx="47" ry="55.3"/>
<ellipse class="st0" cx="84.1" cy="175.3" rx="47" ry="55.3"/>
<ellipse class="st0" cx="225.5" cy="121" rx="59" ry="68"/>
</svg>
